<svg xmlns="http://www.w3.org/2000/svg" xmlns:xlink="http://www.w3.org/1999/xlink" width="500" zoomAndPan="magnify" viewBox="0 0 375 374.999991" height="500" preserveAspectRatio="xMidYMid meet" version="1.0"><defs><clipPath id="73baa1933b"><path d="M 6.328125 1 L 239 1 L 239 259 L 6.328125 259 Z M 6.328125 1 " clip-rule="nonzero"/></clipPath></defs><g clip-path="url(#73baa1933b)"><path fill="#000000" d="M 24.75 52.480469 L 104.152344 6.605469 C 115.507812 0 129.53125 0 140.960938 6.605469 L 220.363281 52.480469 C 231.71875 59.085938 238.769531 71.183594 238.769531 84.324219 L 238.769531 175.996094 C 238.769531 189.132812 231.792969 201.304688 220.363281 207.839844 L 140.960938 253.710938 C 129.605469 260.316406 115.582031 260.316406 104.152344 253.710938 L 24.75 207.839844 C 13.320312 201.304688 6.347656 189.207031 6.347656 176.070312 L 6.347656 84.324219 C 6.347656 71.183594 13.320312 59.085938 24.75 52.480469 Z M 24.75 52.480469 " fill-opacity="1" fill-rule="nonzero"/></g><path fill="#ffffff" d="M 210.71875 73.929688 C 218.507812 69.402344 218.507812 62.054688 210.71875 57.601562 L 136.65625 14.84375 C 128.867188 10.316406 116.175781 10.316406 108.382812 14.84375 L 34.324219 57.601562 C 26.53125 62.128906 26.53125 69.476562 34.324219 73.929688 L 108.457031 116.6875 C 116.324219 121.214844 128.941406 121.140625 136.730469 116.6875 Z M 169.753906 59.234375 C 175.988281 55.597656 186.15625 55.597656 192.386719 59.234375 C 198.621094 62.871094 198.621094 68.660156 192.386719 72.296875 C 186.15625 75.933594 175.988281 75.933594 169.753906 72.296875 C 163.519531 68.660156 163.519531 62.871094 169.753906 59.234375 Z M 111.277344 25.460938 C 117.511719 21.824219 127.679688 21.824219 133.910156 25.460938 C 140.144531 29.097656 140.144531 34.960938 133.910156 38.523438 C 127.679688 42.160156 117.511719 42.160156 111.277344 38.523438 C 105.042969 34.960938 105.042969 29.097656 111.277344 25.460938 Z M 75.507812 72.296875 C 69.277344 75.933594 59.109375 75.933594 52.875 72.296875 C 46.640625 68.660156 46.640625 62.796875 52.875 59.234375 C 59.109375 55.597656 69.277344 55.597656 75.507812 59.234375 C 81.742188 62.871094 81.742188 68.660156 75.507812 72.296875 Z M 111.277344 59.234375 C 117.511719 55.597656 127.679688 55.597656 133.910156 59.234375 C 140.144531 62.871094 140.144531 68.734375 133.910156 72.296875 C 127.679688 75.933594 117.511719 75.933594 111.277344 72.296875 C 105.042969 68.660156 105.042969 62.871094 111.277344 59.234375 Z M 133.984375 106.070312 C 127.753906 109.710938 117.585938 109.710938 111.351562 106.070312 C 105.117188 102.433594 105.117188 96.570312 111.351562 93.007812 C 117.585938 89.371094 127.753906 89.371094 133.984375 93.007812 C 140.21875 96.570312 140.21875 102.433594 133.984375 106.070312 Z M 133.984375 106.070312 " fill-opacity="1" fill-rule="nonzero"/><path fill="#ffffff" d="M 103.78125 124.109375 L 29.648438 81.355469 C 21.855469 76.824219 15.472656 80.539062 15.472656 89.519531 L 15.472656 175.105469 C 15.472656 184.085938 21.855469 195.144531 29.648438 199.597656 L 103.78125 242.355469 C 111.648438 246.882812 117.957031 243.171875 117.957031 234.1875 L 117.957031 148.605469 C 117.957031 139.621094 111.574219 128.5625 103.78125 124.109375 Z M 37.589844 124.257812 C 31.355469 120.621094 26.234375 111.863281 26.234375 104.660156 C 26.234375 97.460938 31.28125 94.492188 37.589844 98.128906 C 43.820312 101.765625 48.941406 110.527344 48.941406 117.726562 C 48.867188 124.925781 43.820312 127.894531 37.589844 124.257812 Z M 96.066406 225.429688 C 89.832031 221.792969 84.710938 213.035156 84.710938 205.835938 C 84.710938 198.632812 89.757812 195.664062 96.066406 199.300781 C 102.296875 202.9375 107.417969 211.699219 107.417969 218.898438 C 107.34375 226.097656 102.296875 229.066406 96.066406 225.429688 Z M 96.066406 225.429688 " fill-opacity="1" fill-rule="nonzero"/><path fill="#ffffff" d="M 215.320312 81.28125 L 141.257812 124.035156 C 133.464844 128.5625 127.160156 139.546875 127.160156 148.53125 L 127.160156 234.039062 C 127.160156 243.023438 133.539062 246.734375 141.257812 242.207031 L 215.320312 199.449219 C 223.183594 194.921875 229.492188 183.9375 229.492188 174.957031 L 229.492188 89.445312 C 229.492188 80.464844 223.109375 76.824219 215.320312 81.28125 Z M 149.050781 225.429688 C 142.816406 229.066406 137.769531 226.097656 137.769531 218.898438 C 137.769531 211.699219 142.816406 202.9375 149.050781 199.300781 C 155.285156 195.664062 160.328125 198.632812 160.328125 205.835938 C 160.328125 213.035156 155.285156 221.867188 149.050781 225.429688 Z M 178.363281 174.808594 C 172.128906 178.445312 167.082031 175.476562 167.082031 168.273438 C 167.082031 161.074219 172.128906 152.242188 178.363281 148.679688 C 184.597656 145.042969 189.640625 148.011719 189.640625 155.210938 C 189.640625 162.410156 184.597656 171.242188 178.363281 174.808594 Z M 207.527344 124.183594 C 201.292969 127.820312 196.171875 124.851562 196.171875 117.652344 C 196.171875 110.453125 201.21875 101.617188 207.527344 98.054688 C 213.761719 94.417969 218.878906 97.386719 218.878906 104.585938 C 218.878906 111.789062 213.835938 120.621094 207.527344 124.183594 Z M 207.527344 124.183594 " fill-opacity="1" fill-rule="nonzero"/><path fill="#000000" d="M 365.144531 261.726562 L 341.398438 173.175781 C 337.984375 160.480469 328.117188 150.535156 315.425781 147.195312 L 226.894531 123.441406 C 214.207031 120.027344 200.699219 123.664062 191.347656 132.941406 L 126.566406 197.742188 C 117.289062 207.023438 113.652344 220.605469 117.066406 233.296875 L 140.8125 321.851562 C 144.226562 334.546875 154.097656 344.492188 166.785156 347.832031 L 255.316406 371.585938 C 268.007812 375 281.511719 371.363281 290.863281 362.085938 L 355.722656 297.210938 C 364.921875 287.929688 368.558594 274.421875 365.144531 261.726562 Z M 365.144531 261.726562 " fill-opacity="1" fill-rule="nonzero"/><path fill="#ffffff" d="M 231.347656 263.730469 L 170.867188 324.226562 C 164.484375 330.613281 166.339844 337.664062 175.097656 340.039062 L 257.691406 362.234375 C 266.375 364.535156 278.691406 361.269531 285 354.882812 L 345.480469 294.386719 C 351.863281 288.003906 349.933594 280.953125 341.25 278.578125 L 258.65625 256.382812 C 249.972656 254.082031 237.65625 257.347656 231.347656 263.730469 Z M 254.277344 338.554688 C 259.398438 333.433594 269.195312 330.835938 276.167969 332.691406 C 283.144531 334.546875 284.628906 340.1875 279.582031 345.308594 C 274.539062 350.429688 264.667969 353.027344 257.691406 351.171875 C 250.714844 349.316406 249.15625 343.675781 254.277344 338.554688 Z M 278.171875 314.652344 C 283.292969 309.53125 293.089844 306.933594 300.066406 308.789062 C 307.039062 310.644531 308.523438 316.285156 303.480469 321.40625 C 298.359375 326.527344 288.5625 329.128906 281.585938 327.269531 C 274.539062 325.414062 273.054688 319.773438 278.171875 314.652344 Z M 302.070312 290.75 C 307.1875 285.628906 316.984375 283.03125 323.960938 284.886719 C 330.9375 286.742188 332.496094 292.382812 327.375 297.507812 C 322.253906 302.628906 312.457031 305.226562 305.480469 303.371094 C 298.507812 301.515625 296.949219 295.871094 302.070312 290.75 Z M 189.046875 321.035156 C 194.167969 315.914062 203.964844 313.316406 210.941406 315.171875 C 217.914062 317.027344 219.398438 322.667969 214.355469 327.789062 C 209.308594 332.914062 199.4375 335.511719 192.460938 333.65625 C 185.488281 331.800781 183.929688 326.082031 189.046875 321.035156 Z M 212.871094 297.136719 C 217.988281 292.011719 227.785156 289.414062 234.761719 291.269531 C 241.738281 293.125 243.222656 298.769531 238.175781 303.890625 C 233.054688 309.011719 223.257812 311.609375 216.285156 309.753906 C 209.308594 307.898438 207.824219 302.257812 212.871094 297.136719 Z M 236.839844 273.234375 C 241.960938 268.113281 251.753906 265.511719 258.730469 267.371094 C 265.707031 269.226562 267.191406 274.867188 262.144531 279.988281 C 257.097656 285.109375 247.226562 287.707031 240.253906 285.851562 C 233.203125 283.996094 231.71875 278.355469 236.839844 273.234375 Z M 236.839844 273.234375 " fill-opacity="1" fill-rule="nonzero"/><path fill="#ffffff" d="M 194.242188 143.039062 L 133.761719 203.535156 C 127.382812 209.917969 124.117188 222.164062 126.417969 230.847656 L 148.605469 313.464844 C 150.90625 322.148438 158.03125 324.003906 164.410156 317.695312 L 224.890625 257.199219 C 231.273438 250.816406 234.539062 238.570312 232.238281 229.882812 L 210.125 147.269531 C 207.675781 138.582031 200.625 136.652344 194.242188 143.039062 Z M 160.847656 274.199219 C 165.96875 269.078125 171.609375 270.636719 173.464844 277.539062 C 175.320312 284.515625 172.722656 294.3125 167.601562 299.363281 C 162.480469 304.484375 156.84375 302.925781 154.988281 296.019531 C 153.132812 289.117188 155.730469 279.320312 160.847656 274.199219 Z M 208.566406 226.46875 C 213.6875 221.347656 219.324219 222.90625 221.179688 229.882812 C 223.035156 236.863281 220.4375 246.660156 215.320312 251.707031 C 210.199219 256.828125 204.558594 255.269531 202.703125 248.367188 C 200.847656 241.390625 203.445312 231.589844 208.566406 226.46875 Z M 143.335938 209.027344 C 148.457031 203.90625 154.097656 205.464844 155.953125 212.441406 C 157.808594 219.417969 155.210938 229.214844 150.089844 234.335938 C 144.96875 239.460938 139.328125 237.902344 137.472656 230.921875 C 135.617188 223.945312 138.289062 214.148438 143.335938 209.027344 Z M 191.050781 161.296875 C 196.171875 156.175781 201.8125 157.734375 203.667969 164.710938 C 205.523438 171.6875 202.925781 181.488281 197.804688 186.609375 C 192.683594 191.730469 187.046875 190.171875 185.191406 183.195312 C 183.335938 176.21875 186.007812 166.417969 191.050781 161.296875 Z M 191.050781 161.296875 " fill-opacity="1" fill-rule="nonzero"/><path fill="#ffffff" d="M 240.550781 227.953125 C 242.851562 236.640625 251.902344 245.621094 260.585938 247.996094 L 343.253906 270.117188 C 351.9375 272.417969 357.132812 267.222656 354.832031 258.535156 L 332.644531 175.847656 C 330.34375 167.160156 321.289062 158.179688 312.605469 155.804688 L 230.011719 133.683594 C 221.328125 131.382812 216.136719 136.578125 218.433594 145.265625 Z M 283.292969 189.355469 C 290.269531 191.210938 297.46875 198.410156 299.324219 205.390625 C 301.179688 212.367188 297.023438 216.523438 290.046875 214.667969 C 283.070312 212.8125 275.871094 205.613281 274.019531 198.632812 C 272.164062 191.582031 276.316406 187.425781 283.292969 189.355469 Z M 283.292969 189.355469 " fill-opacity="1" fill-rule="nonzero"/><path stroke-linecap="butt" transform="matrix(0.0145687, 0.749858, -0.749858, 0.0145687, 120.998697, 129.713634)" fill="none" stroke-linejoin="miter" d="M -0.00075175 1.998625 L 124.428976 1.998994 " stroke="#000000" stroke-width="4" stroke-opacity="1" stroke-miterlimit="4"/></svg>