<svg xmlns="http://www.w3.org/2000/svg" viewBox="0 0 24 24" fill="currentColor">
  <path d="M14 7.5a1.5 1.5 0 1 1-3 0 1.5 1.5 0 0 1 3 0Zm-3.5 9a1.5 1.5 0 1 0 0-3 1.5 1.5 0 0 0 0 3Zm5-4a1.5 1.5 0 1 0 0-3 1.5 1.5 0 0 0 0 3Zm-6.5-5a1.5 1.5 0 1 0 0-3 1.5 1.5 0 0 0 0 3Zm-1.5 9.5a1.5 1.5 0 1 1 3 0 1.5 1.5 0 0 1-3 0Zm12-13.5C21 2.015 19.985 1 18.5 1h-13C3.99 1 3 2.02 3 3.5v17C3 21.985 4.015 23 5.5 23h13c1.49 0 2.5-1.02 2.5-2.5v-17Zm-2.5 19h-13C5.01 21 5 20.98 5 19.5v-17C5 2.015 5.015 2 6.5 2h13C19.99 2 20 2.02 20 3.5v17c0 1.485-.015 1.5-1.5 1.5Z"/>
</svg>